<svg width="22" height="26" viewBox="0 0 22 26" fill="none" xmlns="http://www.w3.org/2000/svg">
<path fill-rule="evenodd" clip-rule="evenodd" d="M12.9844 22.4145C13.2334 22.7799 13.3784 23.2179 13.3784 23.6889C13.3784 24.9653 12.3135 26 11 26C9.68646 26 8.62162 24.9653 8.62162 23.6889C8.62162 23.2179 8.7666 22.7799 9.01555 22.4145L3.73611 18.3644C3.35113 18.625 2.88311 18.7778 2.37838 18.7778C1.06484 18.7778 0 17.7431 0 16.4667C0 15.3384 0.832049 14.3989 1.93243 14.1961V11.8039C0.832049 11.6011 0 10.6616 0 9.53333C0 8.25694 1.06484 7.22222 2.37838 7.22222C2.88311 7.22222 3.35113 7.375 3.73611 7.63556L9.01555 3.58546C8.7666 3.22014 8.62162 2.78208 8.62162 2.31111C8.62162 1.03472 9.68646 0 11 0C12.3135 0 13.3784 1.03472 13.3784 2.31111C13.3784 2.78208 13.2334 3.22014 12.9844 3.58546L18.2639 7.63556C18.6489 7.375 19.1169 7.22222 19.6216 7.22222C20.9352 7.22222 22 8.25694 22 9.53333C22 10.6616 21.168 11.6011 20.0676 11.8039V14.1961C21.168 14.3989 22 15.3384 22 16.4667C22 17.7431 20.9352 18.7778 19.6216 18.7778C19.1169 18.7778 18.6489 18.625 18.2639 18.3644L12.9844 22.4145ZM10.5541 18.7372V21.4183C10.2202 21.4799 9.91099 21.6092 9.64227 21.7911L4.36283 17.741C4.61178 17.3757 4.75676 16.9376 4.75676 16.4667C4.75676 15.9991 4.61384 15.5639 4.36814 15.2001L6.68919 13.5383L9.01024 15.2001C8.76454 15.5639 8.62162 15.9991 8.62162 16.4667C8.62162 17.5949 9.45367 18.5344 10.5541 18.7372ZM12.3577 21.7911C12.089 21.6092 11.7798 21.4799 11.4459 21.4183V18.7372C12.5463 18.5344 13.3784 17.5949 13.3784 16.4667C13.3784 15.9991 13.2355 15.5639 12.9898 15.2001L15.3108 13.5383L17.6319 15.2001C17.3862 15.5639 17.2432 15.9991 17.2432 16.4667C17.2432 16.9376 17.3882 17.3757 17.6372 17.741L12.3577 21.7911ZM5.93742 13L3.74131 14.5724C3.47138 14.3887 3.16036 14.2581 2.82432 14.1961V11.8039C3.16036 11.7419 3.47138 11.6113 3.74131 11.4276L5.93742 13ZM4.36814 10.7999L6.68919 12.4617L9.01024 10.7999C8.76454 10.4361 8.62162 10.0009 8.62162 9.53333C8.62162 8.40505 9.45367 7.46561 10.5541 7.26278V4.58166C10.2202 4.52012 9.91099 4.39076 9.64227 4.20888L4.36283 8.25898C4.61178 8.6243 4.75676 9.06237 4.75676 9.53333C4.75676 10.0009 4.61384 10.4361 4.36814 10.7999ZM19.1757 14.1961C18.8396 14.2581 18.5286 14.3887 18.2587 14.5724L16.0626 13L18.2587 11.4276C18.5286 11.6113 18.8396 11.7419 19.1757 11.8039V14.1961ZM17.6372 8.25898L12.3577 4.20888C12.089 4.39076 11.7798 4.52012 11.4459 4.58166V7.26278C12.5463 7.46561 13.3784 8.40505 13.3784 9.53333C13.3784 10.0009 13.2355 10.4361 12.9898 10.7999L15.3108 12.4617L17.6319 10.7999C17.3862 10.4361 17.2432 10.0009 17.2432 9.53333C17.2432 9.06237 17.3882 8.6243 17.6372 8.25898ZM11 14.1556C10.493 14.1556 10.023 14.3097 9.63707 14.5724L7.44095 13L9.63707 11.4276C10.023 11.6903 10.493 11.8444 11 11.8444C11.507 11.8444 11.977 11.6903 12.3629 11.4276L14.559 13L12.3629 14.5724C11.977 14.3097 11.507 14.1556 11 14.1556ZM11 10.9778C11.821 10.9778 12.4865 10.3311 12.4865 9.53333C12.4865 8.73559 11.821 8.08889 11 8.08889C10.179 8.08889 9.51351 8.73559 9.51351 9.53333C9.51351 10.3311 10.179 10.9778 11 10.9778ZM12.4865 16.4667C12.4865 17.2644 11.821 17.9111 11 17.9111C10.179 17.9111 9.51351 17.2644 9.51351 16.4667C9.51351 15.6689 10.179 15.0222 11 15.0222C11.821 15.0222 12.4865 15.6689 12.4865 16.4667ZM19.6216 10.9778C20.4426 10.9778 21.1081 10.3311 21.1081 9.53333C21.1081 8.73559 20.4426 8.08889 19.6216 8.08889C18.8007 8.08889 18.1351 8.73559 18.1351 9.53333C18.1351 10.3311 18.8007 10.9778 19.6216 10.9778ZM21.1081 16.4667C21.1081 17.2644 20.4426 17.9111 19.6216 17.9111C18.8007 17.9111 18.1351 17.2644 18.1351 16.4667C18.1351 15.6689 18.8007 15.0222 19.6216 15.0222C20.4426 15.0222 21.1081 15.6689 21.1081 16.4667ZM2.37838 10.9778C3.19934 10.9778 3.86487 10.3311 3.86487 9.53333C3.86487 8.73559 3.19934 8.08889 2.37838 8.08889C1.55741 8.08889 0.891892 8.73559 0.891892 9.53333C0.891892 10.3311 1.55741 10.9778 2.37838 10.9778ZM3.86487 16.4667C3.86487 17.2644 3.19934 17.9111 2.37838 17.9111C1.55741 17.9111 0.891892 17.2644 0.891892 16.4667C0.891892 15.6689 1.55741 15.0222 2.37838 15.0222C3.19934 15.0222 3.86487 15.6689 3.86487 16.4667ZM11 25.1333C11.821 25.1333 12.4865 24.4866 12.4865 23.6889C12.4865 22.8911 11.821 22.2444 11 22.2444C10.179 22.2444 9.51351 22.8911 9.51351 23.6889C9.51351 24.4866 10.179 25.1333 11 25.1333ZM12.4865 2.31111C12.4865 3.10886 11.821 3.75556 11 3.75556C10.179 3.75556 9.51351 3.10886 9.51351 2.31111C9.51351 1.51337 10.179 0.866667 11 0.866667C11.821 0.866667 12.4865 1.51337 12.4865 2.31111Z" fill="white"/>
</svg>
