<svg width="95" height="14" viewBox="0 0 95 14" fill="none" xmlns="http://www.w3.org/2000/svg">
<path d="M4.99827 13.216C4.23027 13.216 3.46227 13.078 2.69427 12.802C1.93827 12.514 1.26027 12.088 0.660273 11.524L2.17227 9.706C2.59227 10.066 3.05427 10.36 3.55827 10.588C4.07427 10.816 4.57827 10.93 5.07027 10.93C5.62227 10.93 6.03027 10.828 6.29427 10.624C6.57027 10.42 6.70827 10.144 6.70827 9.796C6.70827 9.616 6.66627 9.46 6.58227 9.328C6.51027 9.196 6.39627 9.082 6.24027 8.986C6.09627 8.878 5.91627 8.782 5.70027 8.698C5.49627 8.602 5.26827 8.5 5.01627 8.392L3.48627 7.744C3.18627 7.624 2.89227 7.468 2.60427 7.276C2.32827 7.084 2.07627 6.862 1.84827 6.61C1.63227 6.346 1.45827 6.046 1.32627 5.71C1.19427 5.362 1.12827 4.972 1.12827 4.54C1.12827 4.06 1.23027 3.61 1.43427 3.19C1.63827 2.758 1.92627 2.386 2.29827 2.074C2.67027 1.75 3.10827 1.498 3.61227 1.318C4.12827 1.138 4.69227 1.048 5.30427 1.048C5.98827 1.048 6.66027 1.18 7.32027 1.444C7.99227 1.708 8.58027 2.092 9.08427 2.596L7.73427 4.27C7.35027 3.97 6.96627 3.742 6.58227 3.586C6.19827 3.418 5.77227 3.334 5.30427 3.334C4.84827 3.334 4.48227 3.43 4.20627 3.622C3.94227 3.802 3.81027 4.06 3.81027 4.396C3.81027 4.576 3.85227 4.732 3.93627 4.864C4.03227 4.984 4.15827 5.098 4.31427 5.206C4.48227 5.302 4.67427 5.398 4.89027 5.494C5.10627 5.578 5.34027 5.674 5.59227 5.782L7.10427 6.394C7.82427 6.682 8.38827 7.078 8.79627 7.582C9.21627 8.086 9.42627 8.752 9.42627 9.58C9.42627 10.072 9.32427 10.54 9.12027 10.984C8.92827 11.416 8.64027 11.8 8.25627 12.136C7.88427 12.46 7.42227 12.724 6.87027 12.928C6.31827 13.12 5.69427 13.216 4.99827 13.216ZM11.2022 13V0.381999H13.8482V3.478L13.7222 5.08C14.0582 4.78 14.4482 4.504 14.8922 4.252C15.3362 3.988 15.8642 3.856 16.4762 3.856C17.4482 3.856 18.1502 4.174 18.5822 4.81C19.0262 5.446 19.2482 6.328 19.2482 7.456V13H16.6022V7.798C16.6022 7.15 16.5122 6.706 16.3322 6.466C16.1642 6.226 15.8882 6.106 15.5042 6.106C15.1682 6.106 14.8802 6.184 14.6402 6.34C14.4002 6.484 14.1362 6.694 13.8482 6.97V13H11.2022ZM25.3194 13.216C24.7554 13.216 24.2094 13.114 23.6814 12.91C23.1534 12.694 22.6854 12.388 22.2774 11.992C21.8814 11.596 21.5634 11.11 21.3234 10.534C21.0834 9.946 20.9634 9.28 20.9634 8.536C20.9634 7.792 21.0834 7.132 21.3234 6.556C21.5634 5.968 21.8814 5.476 22.2774 5.08C22.6854 4.684 23.1534 4.384 23.6814 4.18C24.2094 3.964 24.7554 3.856 25.3194 3.856C25.8834 3.856 26.4234 3.964 26.9394 4.18C27.4674 4.384 27.9294 4.684 28.3254 5.08C28.7334 5.476 29.0574 5.968 29.2974 6.556C29.5374 7.132 29.6574 7.792 29.6574 8.536C29.6574 9.28 29.5374 9.946 29.2974 10.534C29.0574 11.11 28.7334 11.596 28.3254 11.992C27.9294 12.388 27.4674 12.694 26.9394 12.91C26.4234 13.114 25.8834 13.216 25.3194 13.216ZM25.3194 11.074C25.8594 11.074 26.2674 10.846 26.5434 10.39C26.8194 9.934 26.9574 9.316 26.9574 8.536C26.9574 7.756 26.8194 7.138 26.5434 6.682C26.2674 6.226 25.8594 5.998 25.3194 5.998C24.7674 5.998 24.3534 6.226 24.0774 6.682C23.8134 7.138 23.6814 7.756 23.6814 8.536C23.6814 9.316 23.8134 9.934 24.0774 10.39C24.3534 10.846 24.7674 11.074 25.3194 11.074ZM32.8232 13L30.5912 4.072H33.2192L34.0832 8.212C34.1552 8.656 34.2212 9.094 34.2812 9.526C34.3412 9.958 34.4072 10.402 34.4792 10.858H34.5512C34.6352 10.402 34.7132 9.952 34.7852 9.508C34.8692 9.064 34.9652 8.632 35.0732 8.212L36.0632 4.072H38.3492L39.3572 8.212C39.4652 8.656 39.5612 9.094 39.6452 9.526C39.7292 9.958 39.8192 10.402 39.9152 10.858H39.9872C40.0712 10.402 40.1372 9.958 40.1852 9.526C40.2452 9.094 40.3172 8.656 40.4012 8.212L41.2472 4.072H43.6952L41.5532 13H38.4572L37.6472 9.436C37.5512 9.016 37.4672 8.596 37.3952 8.176C37.3232 7.756 37.2452 7.306 37.1612 6.826H37.0892C37.0052 7.306 36.9272 7.756 36.8552 8.176C36.7952 8.596 36.7232 9.016 36.6392 9.436L35.8472 13H32.8232Z" fill="black"/>
<path d="M47.8058 13V3.496H44.5838V1.264H53.6918V3.496H50.4698V13H47.8058ZM54.5499 13V4.072H56.7099L56.8899 5.638H56.9619C57.2859 5.026 57.6759 4.576 58.1319 4.288C58.5879 4 59.0439 3.856 59.4999 3.856C59.7519 3.856 59.9559 3.874 60.1119 3.91C60.2799 3.934 60.4299 3.976 60.5619 4.036L60.1299 6.322C59.9619 6.274 59.8059 6.238 59.6619 6.214C59.5179 6.19 59.3499 6.178 59.1579 6.178C58.8219 6.178 58.4679 6.298 58.0959 6.538C57.7359 6.778 57.4359 7.204 57.1959 7.816V13H54.5499ZM63.462 13.216C63.054 13.216 62.682 13.144 62.346 13C62.022 12.868 61.746 12.682 61.518 12.442C61.29 12.19 61.11 11.902 60.978 11.578C60.858 11.254 60.798 10.9 60.798 10.516C60.798 9.58 61.194 8.848 61.986 8.32C62.778 7.792 64.056 7.438 65.82 7.258C65.796 6.862 65.676 6.55 65.46 6.322C65.256 6.082 64.908 5.962 64.416 5.962C64.032 5.962 63.648 6.034 63.264 6.178C62.892 6.322 62.49 6.52 62.058 6.772L61.104 5.026C61.68 4.678 62.28 4.396 62.904 4.18C63.54 3.964 64.212 3.856 64.92 3.856C66.072 3.856 66.948 4.186 67.548 4.846C68.16 5.494 68.466 6.508 68.466 7.888V13H66.306L66.126 12.082H66.054C65.67 12.418 65.268 12.694 64.848 12.91C64.428 13.114 63.966 13.216 63.462 13.216ZM64.362 11.164C64.662 11.164 64.92 11.098 65.136 10.966C65.352 10.834 65.58 10.648 65.82 10.408V8.842C64.884 8.974 64.236 9.166 63.876 9.418C63.516 9.67 63.336 9.97 63.336 10.318C63.336 10.606 63.426 10.822 63.606 10.966C63.798 11.098 64.05 11.164 64.362 11.164ZM74.5922 13.216C73.9682 13.216 73.3862 13.114 72.8462 12.91C72.3182 12.694 71.8562 12.388 71.4602 11.992C71.0642 11.596 70.7522 11.11 70.5242 10.534C70.2962 9.946 70.1822 9.28 70.1822 8.536C70.1822 7.792 70.3082 7.132 70.5602 6.556C70.8122 5.968 71.1482 5.476 71.5682 5.08C72.0002 4.684 72.4982 4.384 73.0622 4.18C73.6262 3.964 74.2142 3.856 74.8262 3.856C75.3782 3.856 75.8642 3.946 76.2842 4.126C76.7162 4.306 77.1002 4.534 77.4362 4.81L76.1942 6.52C75.7742 6.172 75.3722 5.998 74.9882 5.998C74.3402 5.998 73.8302 6.226 73.4582 6.682C73.0862 7.138 72.9002 7.756 72.9002 8.536C72.9002 9.316 73.0862 9.934 73.4582 10.39C73.8422 10.846 74.3222 11.074 74.8982 11.074C75.1862 11.074 75.4622 11.014 75.7262 10.894C76.0022 10.762 76.2602 10.606 76.5002 10.426L77.5442 12.154C77.1002 12.538 76.6202 12.814 76.1042 12.982C75.5882 13.138 75.0842 13.216 74.5922 13.216ZM79.1065 13V0.381999H81.6805V7.618H81.7525L84.5785 4.072H87.4585L84.3265 7.744L87.6925 13H84.8305L82.8145 9.526L81.6805 10.804V13H79.1065ZM88.9679 13V4.072H91.1279L91.3079 5.638H91.3799C91.7039 5.026 92.0939 4.576 92.5499 4.288C93.0059 4 93.4619 3.856 93.9179 3.856C94.1699 3.856 94.3739 3.874 94.5299 3.91C94.6979 3.934 94.8479 3.976 94.9799 4.036L94.5479 6.322C94.3799 6.274 94.2239 6.238 94.0799 6.214C93.9359 6.19 93.7679 6.178 93.5759 6.178C93.2399 6.178 92.8859 6.298 92.5139 6.538C92.1539 6.778 91.8539 7.204 91.6139 7.816V13H88.9679Z" fill="#540CFA"/>
</svg>
